<svg xmlns="http://www.w3.org/2000/svg" viewBox="0 0 256 256">
  <defs>
    <linearGradient id="eyeGrad" x1="0%" y1="0%" x2="100%" y2="100%">
      <stop offset="0%" style="stop-color:#a855f7;stop-opacity:1"/>
      <stop offset="100%" style="stop-color:#06b6d4;stop-opacity:1"/>
    </linearGradient>
    <radialGradient id="pupilGrad" cx="50%" cy="50%" r="50%">
      <stop offset="0%" style="stop-color:#06b6d4;stop-opacity:1"/>
      <stop offset="100%" style="stop-color:#7c3aed;stop-opacity:1"/>
    </radialGradient>
  </defs>
  
  <circle cx="128" cy="128" r="100" fill="none" stroke="url(#eyeGrad)" stroke-width="2" opacity="0.3"/>
  <circle cx="128" cy="128" r="70" fill="none" stroke="url(#eyeGrad)" stroke-width="1.5" opacity="0.4"/>
  
  <path d="M 128 58 L 158 98 L 198 98 L 168 128 L 198 158 L 158 158 L 128 198 L 98 158 L 58 158 L 88 128 L 58 98 L 98 98 Z" fill="none" stroke="#a855f7" stroke-width="1.5" opacity="0.5"/>
  
  <line x1="128" y1="48" x2="128" y2="78" stroke="#06b6d4" stroke-width="1.5" opacity="0.6"/>
  <line x1="128" y1="178" x2="128" y2="208" stroke="#06b6d4" stroke-width="1.5" opacity="0.6"/>
  <line x1="48" y1="128" x2="78" y2="128" stroke="#06b6d4" stroke-width="1.5" opacity="0.6"/>
  <line x1="178" y1="128" x2="208" y2="128" stroke="#06b6d4" stroke-width="1.5" opacity="0.6"/>
  
  <line x1="70" y1="70" x2="90" y2="90" stroke="#a855f7" stroke-width="1" opacity="0.5"/>
  <line x1="186" y1="70" x2="166" y2="90" stroke="#a855f7" stroke-width="1" opacity="0.5"/>
  <line x1="70" y1="186" x2="90" y2="166" stroke="#a855f7" stroke-width="1" opacity="0.5"/>
  <line x1="186" y1="186" x2="166" y2="166" stroke="#a855f7" stroke-width="1" opacity="0.5"/>
  
  <ellipse cx="128" cy="128" rx="55" ry="35" fill="none" stroke="url(#eyeGrad)" stroke-width="3"/>
  
  <circle cx="128" cy="128" r="22" fill="url(#pupilGrad)"/>
  <circle cx="128" cy="128" r="12" fill="#1e1b4b"/>
  <circle cx="132" cy="124" r="4" fill="#06b6d4" opacity="0.8"/>
  
  <path d="M 128 108 L 138 118 L 128 128 L 118 118 Z" fill="none" stroke="#a855f7" stroke-width="1" opacity="0.6"/>
  <path d="M 128 148 L 138 138 L 128 128 L 118 138 Z" fill="none" stroke="#06b6d4" stroke-width="1" opacity="0.6"/>
  
  <circle cx="128" cy="128" r="45" fill="none" stroke="#06b6d4" stroke-width="0.5" opacity="0.3" stroke-dasharray="3,3"/>
</svg>